Coordinates
version=1
nRows=24
nColumns=24
inDegrees=yes

Units are S.I. units (second, meters, Newtons, ...)
Angles are in degrees.

endheader
time	pelvis_tilt	pelvis_list	pelvis_rotation	pelvis_tx	pelvis_ty	pelvis_tz	hip_flexion_r	hip_adduction_r	hip_rotation_r	knee_angle_r	ankle_angle_r	subtalar_angle_r	mtp_angle_r	hip_flexion_l	hip_adduction_l	hip_rotation_l	knee_angle_l	ankle_angle_l	subtalar_angle_l	mtp_angle_l	lumbar_extension	lumbar_bending	lumbar_rotation
      0.66183333	     -3.87292350	     -1.37367900	     -1.59237915	     -0.46945163	      1.06065378	      0.30254706	     16.67070999	      5.69451700	     -2.27916256	    -17.48472386	      4.19011436	     -6.29160991	      0.84904653	     20.76662726	     -2.01308048	     -2.77570271	    -65.41829289	      6.66222292	     -0.36756062	      2.24891069	      3.88457777	      5.26894168	      0.20822338
      0.66600000	     -3.89683282	     -1.24777362	     -1.60894290	     -0.46409004	      1.06122975	      0.30288171	     16.35310206	      5.62552366	     -2.06694079	    -17.42432403	      4.22297238	     -6.59698233	      0.85490870	     21.35205805	     -1.88672026	     -2.72877636	    -65.14267690	      7.02024879	     -0.79673324	      2.24461120	      3.89447845	      5.08339653	      0.32606408
      0.67016667	     -3.90816349	     -1.12014288	     -1.61718652	     -0.45873447	      1.06181380	      0.30318805	     16.01974901	      5.54826737	     -1.86371895	    -17.36252860	      4.26054858	     -6.88697896	      0.86042821	     21.90518075	     -1.75343845	     -2.67775068	    -64.78269498	      7.34539531	     -1.24163221	      2.23692413	      3.90489274	      4.90290969	      0.43390320
      0.67433333	     -3.91215640	     -0.98962406	     -1.62939673	     -0.45336697	      1.06240094	      0.30349460	     15.67773705	      5.46730877	     -1.66781872	    -17.29738346	      4.30213868	     -7.18148909	      0.86616536	     22.42870663	     -1.61810201	     -2.64278616	    -64.33378303	      7.63512492	     -1.73155119	      2.22446416	      3.89751214	      4.73295311	      0.53582674
      0.67850000	     -3.90611569	     -0.87277093	     -1.62044170	     -0.44800648	      1.06298309	      0.30377175	     15.31790090	      5.39451870	     -1.47981905	    -17.21825634	      4.35314869	     -7.45521399	      0.87141855	     22.92710964	     -1.49012221	     -2.59576550	    -63.80732403	      7.88306377	     -2.23302641	      2.20822518	      3.88042037	      4.56347866	      0.62756221
      0.68266667	     -3.90560080	     -0.75514325	     -1.62428531	     -0.44261657	      1.06354886	      0.30401290	     14.96246352	      5.31554612	     -1.29957427	    -17.14588166	      4.40911943	     -7.74406857	      0.87727614	     23.40224130	     -1.35970807	     -2.56881908	    -63.19192066	      8.10212679	     -2.82139305	      2.18444116	      3.86639766	      4.40130879	      0.71975188
      0.68683333	     -3.89852361	     -0.65257920	     -1.59554081	     -0.43723061	      1.06410438	      0.30424663	     14.59102826	      5.24829755	     -1.13541012	    -17.04944688	      4.47912488	     -7.97583111	      0.88197174	     23.85785549	     -1.23938416	     -2.51679946	    -62.50355462	      8.27621068	     -3.34931706	      2.16019980	      3.86123314	      4.24554688	      0.79475392
      0.69100000	     -3.88577082	     -0.54723352	     -1.58772389	     -0.43184512	      1.06464854	      0.30445182	     14.21780254	      5.17522266	     -0.98245231	    -16.96687318	      4.56292070	     -8.23495376	      0.88685250	     24.27763625	     -1.11735631	     -2.49742299	    -61.72641645	      8.41958933	     -3.99084786	      2.12586938	      3.82690214	      4.10317234	      0.86582940
      0.69516667	     -3.86287212	     -0.46131837	     -1.54196397	     -0.42644338	      1.06518241	      0.30463364	     13.81897332	      5.11483681	     -0.85031881	    -16.85396185	      4.65005905	     -8.43726475	      0.89080102	     24.66945367	     -1.00576209	     -2.44523134	    -60.87759051	      8.52344142	     -4.56518425	      2.09083037	      3.80655683	      3.97569364	      0.92516486
      0.69933333	     -3.87168926	     -0.37378355	     -1.54126134	     -0.42116389	      1.06561578	      0.30480452	     13.47825359	      5.05624792	     -0.69209059	    -16.78147348	      4.73458768	     -8.69155670	      0.89688266	     25.07890541	     -0.90504565	     -2.45270706	    -59.95509380	      8.49080958	     -5.40578732	      2.02209619	      3.66148179	      3.87602441	      0.98255544
      0.70350000	     -3.84979161	     -0.31362285	     -1.45754624	     -0.41565597	      1.06612745	      0.30489028	     13.05716103	      5.00894167	     -0.61684587	    -16.63536801	      4.83362025	     -8.81606827	      0.89928122	     25.41359142	     -0.80308855	     -2.37034844	    -58.94276249	      8.58464560	     -5.79946005	      1.98756858	      3.74669338	      3.77993166	      1.02771192
      0.70766667	     -3.82184338	     -0.24322213	     -1.43387896	     -0.41033356	      1.06658114	      0.30500796	     12.65661184	      4.95820177	     -0.47718906	    -16.52669478	      4.94058496	     -9.02367927	      0.90412842	     25.72798146	     -0.71060942	     -2.37623925	    -57.85306356	      8.42734273	     -6.73647852	      1.87540582	      3.60103385	      3.70843725	      1.06745691
      0.71183333	     -3.82307250	     -0.20305479	     -1.33741288	     -0.40483410	      1.06698974	      0.30502474	     12.25794085	      4.92495080	     -0.44174835	    -16.37980223	      5.06707452	     -9.13779916	      0.90460697	     26.03924401	     -0.62161625	     -2.29500713	    -56.70287105	      8.55809728	     -7.06310252	      1.84011706	      3.66591988	      3.61473355	      1.09844226
      0.71600000	     -3.80922900	     -0.16236963	     -1.26825583	     -0.39935510	      1.06739895	      0.30506903	     11.84028248	      4.89564070	     -0.36395471	    -16.22558052	      5.22764407	     -9.30292404	      0.90354788	     26.30173958	     -0.54306029	     -2.25544048	    -55.46486234	      8.60854057	     -7.63056807	      1.78531145	      3.69071598	      3.54478997	      1.11569303
      0.72016667	     -3.81411768	     -0.13323172	     -1.21642639	     -0.39401378	      1.06770783	      0.30508740	     11.45866825	      4.87909914	     -0.25904487	    -16.09239156	      5.36859301	     -9.48557281	      0.89895371	     26.57408562	     -0.48034802	     -2.24862321	    -54.16290691	      8.38677849	     -8.51858034	      1.67007000	      3.52730484	      3.44630820	      1.12310502
      0.72433333	     -3.82612368	     -0.12416611	     -1.11669199	     -0.38849014	      1.06800943	      0.30503537	     11.05573902	      4.87437602	     -0.23184242	    -15.91369218	      5.45964232	     -9.55838312	      0.89645877	     26.81004610	     -0.42140180	     -2.18741560	    -52.78868631	      8.41331412	     -8.74888642	      1.62903305	      3.62179866	      3.49097109	      1.13033892
      0.72850000	     -3.80764573	     -0.10140514	     -1.04649172	     -0.38304397	      1.06832136	      0.30500257	     10.62662220	      4.85801880	     -0.15539631	    -15.74812046	      5.64415411	     -9.73208117	      0.88661420	     26.98398796	     -0.35578642	     -2.17575366	    -51.32398501	      8.19546639	     -9.53330836	      1.50153616	      3.50504774	      3.36676224	      1.13873839
      0.73266667	     -3.80299432	     -0.10165815	     -0.94608169	     -0.37754223	      1.06858555	      0.30489380	     10.19890811	      4.85933291	     -0.12385907	    -15.55474755	      5.75283736	     -9.82990388	      0.87325674	     27.14290995	     -0.30088404	     -2.13189356	    -49.79454163	      8.01993171	     -9.99799817	      1.36754392	      3.49791485	      3.36984645	      1.14416122
      0.73683333	     -3.81479864	     -0.11358011	     -0.84757746	     -0.37203579	      1.06877919	      0.30478913	      9.78733876	      4.87624476	     -0.08162951	    -15.36252625	      5.89428836	     -9.94900708	      0.85806658	     27.29181363	     -0.26070743	     -2.09734749	    -48.21022959	      7.90816593	    -10.35404697	      1.24133674	      3.50642559	      3.37590702	      1.14200184
      0.74100000	     -3.86819738	     -0.13970161	     -0.74841158	     -0.36647119	      1.06887781	      0.30464376	      9.41627343	      4.90695257	     -0.06127368	    -15.16517589	      5.98816488	    -10.02750214	      0.85190600	     27.45238559	     -0.23324905	     -2.06196019	    -46.57124602	      7.91456894	    -10.46155867	      1.19847079	      3.61362757	      3.48062278	      1.13448610
      0.74516667	     -3.91881208	     -0.16837750	     -0.64277028	     -0.36088779	      1.06894889	      0.30449448	      9.03557785	      4.94140068	     -0.03696228	    -14.95845023	      6.11805926	    -10.14509772	      0.84412255	     27.57955085	     -0.20591553	     -2.03096291	    -44.86402453	      7.83870320	    -10.61632499	      1.14876878	      3.70679632	      3.51651561	      1.13367742
      0.74933333	     -3.87707820	     -0.17802385	     -0.57867348	     -0.35539004	      1.06912901	      0.30438066	      8.56220502	      4.95918077	      0.04951090	    -14.75740805	      6.27145779	    -10.34373567	      0.81545093	     27.57243396	     -0.17482302	     -2.05978222	    -43.06287243	      7.43596009	    -11.07675590	      0.98428224	      3.55516284	      3.46443276	      1.11746952
      0.75350000	     -3.95360066	     -0.23450199	     -0.45861906	     -0.34979164	      1.06906184	      0.30414203	      8.20865539	      5.01866285	      0.05186703	    -14.54653112	      6.36296423	    -10.41767717	      0.80716955	     27.67627353	     -0.16390147	     -2.01859559	    -41.26376362	      7.43337386	    -11.08342496	      0.94231029	      3.69257725	      3.58988402	      1.11316753
      0.75766667	     -4.01572405	     -0.28954218	     -0.35374101	     -0.34414187	      1.06899845	      0.30391547	      7.83377137	      5.08035935	      0.06767080	    -14.33228403	      6.48700306	    -10.53199389	      0.79727816	     27.72772485	     -0.15661121	     -2.00442235	    -39.40121519	      7.33117675	    -11.07253986	      0.89499145	      3.80716328	      3.66951312	      1.10932490
